<svg width="235" height="317" viewBox="0 0 235 317" fill="none" xmlns="http://www.w3.org/2000/svg">
<g style="mix-blend-mode:multiply" opacity="0.5">
<path d="M190.445 310.286C190.445 310.286 150.221 317 100.56 317C50.8995 317 10.6758 310.286 10.6758 310.286C10.6758 310.286 50.8995 303.427 100.56 303.427C150.221 303.427 190.445 310.286 190.445 310.286Z" fill="#716A9B"/>
</g>
<path d="M204.679 94.4283C210.712 106.104 191.064 112.088 188.744 99.9743C182.71 93.8445 183.484 119.823 200.192 117.634C217.055 115.299 217.365 100.704 214.425 97.3473C211.331 94.1364 204.679 94.4283 204.679 94.4283Z" fill="url(#paint0_linear_1_4424)"/>
<path d="M235 166.234L170.797 153.683L174.355 104.936L188.743 99.974C188.279 118.655 205.761 116.466 210.092 108.439C213.805 101.579 211.639 94.7199 204.678 94.428L232.37 84.7954L235 166.234Z" fill="#F5853B"/>
<path d="M234.999 166.234L174.354 104.936L188.741 99.974C188.277 118.655 205.759 116.466 210.091 108.439C213.804 101.579 211.638 94.7199 204.676 94.428L232.369 84.7954L234.999 166.234Z" fill="url(#paint1_linear_1_4424)"/>
<path opacity="0.5" d="M220.155 128.288C215.513 132.229 220.773 140.986 225.105 137.045C229.437 133.25 223.403 125.515 220.155 128.288Z" fill="url(#paint2_radial_1_4424)"/>
<path d="M210.095 169.883C209.786 174.408 209.012 178.348 207.156 179.37C202.05 182.289 177.452 180.392 177.452 180.392L176.369 177.327C176.369 177.327 196.326 179.078 202.05 175.575C204.062 174.408 204.835 170.905 205.145 166.818C205.454 159.229 203.907 149.742 203.907 149.742L209.941 151.786C209.941 151.786 210.869 161.856 210.095 169.883Z" fill="#BA4A37"/>
<path fill-rule="evenodd" clip-rule="evenodd" d="M193.226 194.987L192.917 215.419L10.5176 115.737L19.1812 81.8769C43.4701 78.5201 34.4971 64.509 26.143 53.8548L28.4636 44.8061C29.3918 44.0763 71.4721 31.0869 108.447 19.8489C110.097 19.3625 111.696 18.876 113.243 18.3895C114.893 20.1408 116.492 21.6976 118.039 23.0598C139.698 41.3033 161.357 24.5193 163.058 12.1137C163.265 10.4596 163.162 8.90284 162.749 7.44336L166.926 6.56766L196.475 0L193.69 169.738C175.126 171.635 176.209 192.214 193.226 194.987ZM101.485 50.2061C101.382 50.2061 101.33 50.2061 101.33 50.2061C97.7722 58.2333 101.021 69.3253 108.602 73.9957C125.31 69.9091 118.039 47.1412 101.485 50.2061ZM170.949 47.1413C170.175 44.8061 168.319 42.9087 166.153 42.179C162.904 44.806 161.511 49.3305 163.058 53.7089C163.471 54.7792 163.987 55.8008 164.606 56.7738C165.328 56.7738 166.049 56.6765 166.771 56.4819C170.484 55.3143 172.341 51.0818 170.949 47.1413Z" fill="url(#paint3_linear_1_4424)"/>
<path d="M166.923 6.56766L162.745 7.44336C163.158 8.90284 163.261 10.4596 163.055 12.1137C161.353 24.5193 139.694 41.3033 118.035 23.0598C116.488 21.6976 114.889 20.1408 113.239 18.3895C75.3361 29.9194 29.3882 44.0763 28.46 44.8061L113.239 24.2274C140.004 45.8277 163.364 30.6491 166.613 11.238L191.83 4.96223L193.687 169.738L196.472 0L166.923 6.56766Z" fill="#FFEB9C"/>
<path d="M192.917 215.419L45.7907 135.002L38.2101 130.769L10.5176 115.737L19.1812 81.8767C43.4701 78.5199 34.4971 64.5089 26.143 53.8547L28.4636 44.8059L60.4879 78.0821L90.6557 109.315L106.591 125.953L126.393 146.386L192.917 215.419Z" fill="#FF9F45"/>
<g style="mix-blend-mode:multiply" opacity="0.5">
<path d="M81.378 87.8605L61.5756 75.7468L60.4926 78.082L38.2148 130.769L45.7955 135.002C62.3491 125.077 90.5057 109.315 90.5057 109.315L95.7658 106.98L81.378 87.8605Z" fill="#DE907C"/>
</g>
<path d="M124.542 73.8499C122.891 74.9202 121.241 75.6013 119.591 75.8932C115.414 76.9148 111.701 75.7472 108.607 73.9959C125.315 69.9093 118.044 47.1414 101.49 50.2063C102.418 48.163 103.656 46.4117 105.667 44.9522C107.008 43.8819 108.71 43.0549 110.773 42.4711C130.111 36.6331 142.952 61.7362 124.542 73.8499Z" fill="url(#paint4_linear_1_4424)"/>
<path d="M176.216 61.0072C171.885 62.3208 167.398 60.4234 164.613 56.7747C165.335 56.7747 166.057 56.6774 166.779 56.4828C170.492 55.3153 172.349 51.0828 170.956 47.1422C170.183 44.807 168.326 42.9096 166.16 42.1799C166.985 41.4988 167.965 40.9637 169.1 40.5745C174.515 38.9691 180.239 42.1799 182.25 47.8719C184.106 53.4179 181.476 59.4018 176.216 61.0072Z" fill="url(#paint5_linear_1_4424)"/>
<path opacity="0.5" d="M176.83 131.79C178.067 135.293 176.211 138.942 172.807 139.963C169.404 141.131 165.691 139.088 164.453 135.439C163.37 131.936 165.072 128.288 168.476 127.266C171.879 126.244 175.592 128.142 176.83 131.79Z" fill="url(#paint6_radial_1_4424)"/>
<path opacity="0.5" d="M158.112 93.5524C159.814 95.4498 159.659 98.2228 157.803 99.5363C155.946 100.996 153.162 100.412 151.46 98.5147C149.758 96.6173 149.913 93.8443 151.769 92.5308C153.626 91.0713 156.41 91.5092 158.112 93.5524Z" fill="#FF9F45"/>
<path d="M146.357 244.171C135.992 258.036 98.7072 253.949 95.4583 261.247C92.2095 268.69 99.0166 285.036 107.525 289.269C116.189 293.501 123.77 292.188 127.328 299.193C130.886 306.199 138.312 310.577 138.312 310.577H126.245C115.57 297.88 103.039 296.712 94.9942 302.55C92.2095 304.593 90.0436 307.22 88.4965 310.577H84.9383C79.833 303.572 72.0976 299.631 64.0529 310.577H56.627C56.627 310.577 61.7323 306.783 64.6717 295.69C67.7658 284.744 61.2682 277.301 59.1023 255.409C58.0193 245.192 60.3399 238.479 66.5282 235.414C67.7658 234.733 69.2098 234.246 70.86 233.954C75.9653 233.079 82.6177 233.663 91.2813 235.998C115.725 242.711 135.218 235.268 133.671 218.63C133.362 215.808 132.691 213.133 131.66 210.603C129.649 206.078 126.554 201.992 122.532 198.343C116.344 194.84 113.714 193.235 107.371 198.489C100.564 204.181 95.4583 209.581 84.6289 204.181C73.9541 198.927 85.7118 199.949 85.7118 199.949C99.0166 204.619 105.36 192.505 115.416 193.235C108.918 189.294 101.028 186.229 92.2095 184.186C68.6941 178.64 79.9877 177.327 93.7566 178.348C107.525 179.224 133.98 202.138 134.29 191.484C134.599 185.5 129.803 174.116 125.781 165.213C128.462 166.575 130.886 167.937 133.052 169.299C134.444 176.743 136.92 185.646 139.395 184.624C141.097 183.748 143.263 179.662 144.655 176.597C146.512 177.959 148.059 179.175 149.296 180.246C146.512 182.581 142.799 186.959 144.036 193.965C144.965 199.657 148.368 209.435 150.07 219.214C150.173 219.895 150.276 220.576 150.379 221.257C151.462 229.576 150.998 238.041 146.357 244.171Z" fill="#BA4A37"/>
<g style="mix-blend-mode:multiply" opacity="0.7">
<path d="M150.07 219.214L131.66 210.603C129.649 206.078 126.554 201.992 122.532 198.343C116.344 194.84 113.714 193.235 107.371 198.489C100.564 204.181 95.4584 209.581 84.6289 204.181C73.9541 198.927 85.7119 199.949 85.7119 199.949C99.0166 204.619 105.36 192.505 115.416 193.235C108.918 189.294 101.028 186.229 92.2095 184.186C68.6941 178.64 79.9877 177.327 93.7566 178.348C107.526 179.224 133.98 202.138 134.29 191.484C134.599 185.5 129.803 174.116 125.781 165.213C128.462 166.575 130.886 167.937 133.052 169.299C134.444 176.743 136.92 185.646 139.395 184.624C141.097 183.748 143.263 179.662 144.655 176.597C146.512 177.959 148.059 179.175 149.296 180.246C146.512 182.581 142.799 186.959 144.036 193.965C144.965 199.657 148.368 209.435 150.07 219.214Z" fill="#BA4A37"/>
</g>
<path d="M81.2253 59.109C74.1087 71.0767 87.4135 78.3741 95.4583 77.7903C91.4359 86.1094 79.6782 83.3364 72.8711 76.7687C66.2187 70.0551 75.1917 57.6495 81.2253 59.109Z" fill="url(#paint7_linear_1_4424)"/>
<path d="M101.801 86.2552L97.7789 100.12L33.4209 113.256L74.4182 50.2061L81.2253 59.1089C80.4002 59.6927 79.6782 60.2765 79.0594 60.8603C67.147 72.6821 82.3082 85.5255 94.6848 78.3741C94.891 78.1795 95.1489 77.9849 95.4583 77.7903L101.801 86.2552Z" fill="url(#paint8_linear_1_4424)"/>
<path d="M81.2253 59.1089C80.4002 59.6927 79.6782 60.2765 79.0594 60.8603L74.5729 55.7521L33.4209 113.256L74.4182 50.2061L81.2253 59.1089Z" fill="#FFEB9C"/>
<path d="M101.793 86.255L94.6768 78.3738C94.883 78.1792 95.1409 77.9846 95.4503 77.79L101.793 86.255Z" fill="#FFEB9C"/>
<path d="M33.4209 113.255L101.801 86.2544L97.7789 100.265L33.4209 113.255Z" fill="#FF9F45"/>
<g style="mix-blend-mode:screen" opacity="0.4">
<path d="M66.5273 235.415C67.765 234.734 69.2089 234.247 70.8591 233.955C69.4667 235.561 68.5385 237.02 67.765 238.334C64.9802 243.88 64.5161 254.972 67.1461 271.026C60.1843 245.777 62.5049 240.085 66.5273 235.415Z" fill="#BA4A37"/>
</g>
<g style="mix-blend-mode:multiply" opacity="0.5">
<path d="M84.9382 310.577C79.8328 303.572 72.0975 299.631 64.0527 310.577C69.1581 303.864 75.501 294.669 73.7993 281.534C81.2252 294.669 84.0099 305.615 84.9382 310.577Z" fill="#BA4A37"/>
</g>
<g style="mix-blend-mode:multiply" opacity="0.7">
<path d="M146.351 244.171C135.985 258.036 98.701 253.949 95.4522 261.247C92.2033 268.69 99.0104 285.036 107.519 289.269C116.183 293.501 123.764 292.188 127.322 299.193C130.88 306.199 138.306 310.577 138.306 310.577H126.239C115.564 297.88 103.033 296.712 94.9881 302.55C103.342 295.691 101.95 289.561 94.9881 280.804C88.181 272.047 86.4792 258.474 93.9051 253.803C101.486 249.133 120.36 254.825 134.129 249.425C147.434 244.317 150.992 231.619 150.373 221.257C151.456 229.576 150.992 238.041 146.351 244.171Z" fill="#BA4A37"/>
</g>
<path d="M30.6273 147.846C32.4838 163.024 60.9499 162.149 66.2099 152.078C72.5529 161.127 62.1875 172.365 44.3962 171.489C26.7597 170.468 24.4391 154.413 30.6273 147.846Z" fill="url(#paint9_linear_1_4424)"/>
<path d="M106.593 156.748V156.894C106.438 157.624 98.2388 175.722 90.8129 191.776L88.9564 195.862C84.934 204.619 81.5305 212.354 80.1381 215.273C79.7256 216.149 79.5193 216.587 79.5193 216.587L46.8762 206.663C42.6991 195.57 30.3225 184.041 24.4437 199.949L14.5424 196.884L0 144.197L30.6319 147.845C30.5288 148.235 30.4772 148.624 30.4772 149.013C28.1566 165.359 47.8044 171.197 58.3245 164.775C64.2033 161.273 65.9051 157.186 66.2145 154.121C66.3176 153.343 66.3176 152.662 66.2145 152.078L106.593 156.748Z" fill="url(#paint10_linear_1_4424)"/>
<path d="M66.2145 152.078C66.2145 152.37 66.2145 152.662 66.2145 152.954C66.2145 152.954 66.2145 153.002 66.2145 153.1C66.2145 153.391 66.2145 153.732 66.2145 154.121C65.9051 157.186 64.2033 161.273 58.3245 164.775C47.495 171.343 27.3831 165.067 30.6319 147.845L0 144.197C0 144.197 11.9124 146.24 27.6925 148.575C28.9302 178.495 65.5957 172.511 68.6898 154.413C87.564 156.894 102.106 158.937 102.106 158.937L80.1381 215.273L79.3646 217.171L88.9564 195.862L90.8129 191.776L106.593 156.894V156.748L66.2145 152.078Z" fill="#FFEB9C"/>
<path d="M79.5193 216.587L46.8762 206.663C42.6991 195.57 30.3225 184.041 24.4437 199.949L14.5424 196.884L0 144.197L79.5193 216.587Z" fill="#FF9F45"/>
<path d="M65.9029 178.057C61.5711 187.689 75.6494 189.003 76.1136 181.852C76.5777 174.846 67.45 174.7 65.9029 178.057Z" fill="#FF9F45"/>
<path d="M89.1111 125.661C70.8557 125.369 66.5239 111.796 65.5957 102.747L70.0822 101.58C69.4634 110.045 71.1651 123.326 87.4094 123.326L89.1111 125.661Z" fill="#BA4A37"/>
<path d="M125.467 146.824C125.364 146.921 125.312 146.97 125.312 146.97C121.445 148.721 116.339 148.867 110.306 145.948C102.261 142.008 100.869 136.024 103.034 130.916C103.653 129.553 104.427 128.289 105.355 127.121C109.996 121.867 118.505 118.802 125.622 123.326C135.832 129.894 133.976 142.737 125.467 146.824Z" fill="url(#paint11_linear_1_4424)"/>
<path style="mix-blend-mode:multiply" opacity="0.2" d="M125.464 146.824C125.361 146.921 125.31 146.97 125.31 146.97C131.498 138.067 123.144 121.575 105.353 127.121C109.994 121.867 118.503 118.802 125.619 123.326C135.83 129.894 133.973 142.737 125.464 146.824Z" fill="url(#paint12_radial_1_4424)"/>
<g style="mix-blend-mode:multiply" opacity="0.7">
<path d="M210.09 169.883C208.388 168.716 206.686 167.694 205.139 166.818C205.448 159.229 203.901 149.742 203.901 149.742L209.935 151.786C209.935 151.786 210.863 161.856 210.09 169.883Z" fill="#BA4A37"/>
</g>
<defs>
<linearGradient id="paint0_linear_1_4424" x1="186.058" y1="98.8987" x2="197.017" y2="86.5782" gradientUnits="userSpaceOnUse">
<stop stop-color="#FF9F45"/>
<stop offset="1" stop-color="#ED7A40"/>
</linearGradient>
<linearGradient id="paint1_linear_1_4424" x1="233.742" y1="166.577" x2="199.859" y2="167.057" gradientUnits="userSpaceOnUse">
<stop offset="0.004" stop-color="#FFE563"/>
<stop offset="1" stop-color="#FFB452"/>
</linearGradient>
<radialGradient id="paint2_radial_1_4424" cx="0" cy="0" r="1" gradientUnits="userSpaceOnUse" gradientTransform="translate(227.127 140.628) rotate(-112.972) scale(9.74737 10.1592)">
<stop stop-color="#FF9F45"/>
<stop offset="1" stop-color="#ED7A40"/>
</radialGradient>
<linearGradient id="paint3_linear_1_4424" x1="207.524" y1="-72.1436" x2="250.726" y2="24.5909" gradientUnits="userSpaceOnUse">
<stop offset="0.004" stop-color="#FFE563"/>
<stop offset="1" stop-color="#FFC252"/>
</linearGradient>
<linearGradient id="paint4_linear_1_4424" x1="99.3893" y1="84.3129" x2="89.6289" y2="55.5391" gradientUnits="userSpaceOnUse">
<stop stop-color="#FF9F45"/>
<stop offset="1" stop-color="#ED7A40"/>
</linearGradient>
<linearGradient id="paint5_linear_1_4424" x1="157.405" y1="58.6035" x2="159.279" y2="42.9946" gradientUnits="userSpaceOnUse">
<stop stop-color="#FF9F45"/>
<stop offset="1" stop-color="#ED7A40"/>
</linearGradient>
<radialGradient id="paint6_radial_1_4424" cx="0" cy="0" r="1" gradientUnits="userSpaceOnUse" gradientTransform="translate(177.376 143.193) rotate(-113.832) scale(16.82 17.5092)">
<stop stop-color="#FF9F45"/>
<stop offset="1" stop-color="#ED7A40"/>
</radialGradient>
<linearGradient id="paint7_linear_1_4424" x1="70.5226" y1="58.9805" x2="95.4057" y2="58.9805" gradientUnits="userSpaceOnUse">
<stop stop-color="#FF9F45"/>
<stop offset="1" stop-color="#ED7A40"/>
</linearGradient>
<linearGradient id="paint8_linear_1_4424" x1="68.513" y1="-15.9114" x2="115.446" y2="93.9258" gradientUnits="userSpaceOnUse">
<stop offset="0.004" stop-color="#FFE563"/>
<stop offset="1" stop-color="#FFC252"/>
</linearGradient>
<linearGradient id="paint9_linear_1_4424" x1="27.5348" y1="147.831" x2="68.071" y2="147.831" gradientUnits="userSpaceOnUse">
<stop stop-color="#FF9F45"/>
<stop offset="1" stop-color="#ED7A40"/>
</linearGradient>
<linearGradient id="paint10_linear_1_4424" x1="106.475" y1="138.001" x2="83.4302" y2="217.619" gradientUnits="userSpaceOnUse">
<stop offset="0.004" stop-color="#FFE563"/>
<stop offset="1" stop-color="#FFC252"/>
</linearGradient>
<linearGradient id="paint11_linear_1_4424" x1="146.123" y1="135.011" x2="118.053" y2="162.399" gradientUnits="userSpaceOnUse">
<stop stop-color="#ED7A40"/>
<stop offset="1" stop-color="#FF9F45"/>
</linearGradient>
<radialGradient id="paint12_radial_1_4424" cx="0" cy="0" r="1" gradientUnits="userSpaceOnUse" gradientTransform="translate(129.615 129.484) rotate(137.513) scale(28.0197 27.9242)">
<stop stop-color="#ED7A40"/>
<stop offset="1" stop-color="#FF9F45"/>
</radialGradient>
</defs>
</svg>
